<mxfile host="app.diagrams.net" modified="2024-05-04T01:59:34.263Z" agent="Mozilla/5.0 (Macintosh; Intel Mac OS X 10_15_7) AppleWebKit/537.36 (KHTML, like Gecko) Chrome/124.0.0.0 Safari/537.36" version="24.3.1" etag="7OJ9_3Qd7BQv5maGlhX8" type="github">
  <diagram name="第 1 页" id="GYkF3gW1LHVcutm2C3Ud">
    <mxGraphModel>
      <root>
        <mxCell id="0" />
        <mxCell id="1" parent="0" />
      </root>
    </mxGraphModel>
  </diagram>
</mxfile>
